<?xml version="1.0" encoding="utf-8"?>
<!-- Generator: Adobe Illustrator 26.0.2, SVG Export Plug-In . SVG Version: 6.00 Build 0)  -->
<svg version="1.1" id="Layer_1" xmlns="http://www.w3.org/2000/svg" xmlns:xlink="http://www.w3.org/1999/xlink" x="0px" y="0px"
	 viewBox="0 0 180 80" style="enable-background:new 0 0 180 80;" xml:space="preserve">
<style type="text/css">
	.st0{fill:#EFEFEF;}
</style>
<g>
	<path class="st0" d="M53.82,33.44c-0.64,0.91-0.96,1.82-0.96,2.73c0,0.46,0.09,0.88,0.27,1.26c0.18,0.39,0.46,0.65,0.82,0.78
		c0.32,0.14,0.74,0.18,1.26,0.14c0.52-0.05,1.09-0.17,1.71-0.38c0.61-0.2,1.22-0.48,1.81-0.82s1.14-0.72,1.64-1.13
		c0.23-0.23,0.43-0.42,0.61-0.58c0.18-0.16,0.39-0.24,0.61-0.24c1.05,0,2.14-0.15,3.28-0.44c0.56-0.15,1.03-0.33,1.4-0.56
		c-0.06,0.62-0.1,1.25-0.1,1.9c0,0.96,0.08,1.83,0.24,2.63c0.16,0.8,0.38,1.35,0.65,1.67c0.23,0.23,0.55,0.32,0.96,0.27
		c0.41-0.05,0.8-0.25,1.16-0.61c0.18-0.18,0.55-0.76,1.09-1.74c0.55-0.98,1.14-2.06,1.78-3.24l2.18-4.44l0.96,0.2
		c0.27,0.09,0.63,0.14,1.06,0.14s0.89-0.01,1.37-0.03s0.92-0.07,1.33-0.14c0.38-0.06,0.69-0.14,0.95-0.22
		c-0.15,0.13-0.3,0.26-0.48,0.39c-0.23,0.18-0.56,0.51-0.99,0.99s-0.85,0.98-1.26,1.5s-0.77,1.02-1.09,1.5s-0.48,0.81-0.48,0.99
		c0,0.37,0.11,0.66,0.34,0.89c0.14,0.14,0.4,0.2,0.78,0.2c0.39,0,0.88-0.06,1.47-0.17c0.59-0.11,1.23-0.26,1.91-0.44
		s1.37-0.36,2.05-0.55c0.64-0.18,1.24-0.41,1.81-0.68s1.06-0.56,1.47-0.85c0.41-0.3,0.72-0.56,0.92-0.78
		c0.2-0.23,0.26-0.41,0.17-0.55c0-0.04-0.23,0.07-0.68,0.34c-0.46,0.27-1,0.57-1.64,0.89c-0.27,0.14-0.54,0.25-0.79,0.34
		s-0.47,0.18-0.65,0.27c-0.55,0.23-1.17,0.42-1.88,0.58c-0.71,0.16-1.37,0.3-1.98,0.41s-1.13,0.17-1.54,0.17s-0.61-0.07-0.61-0.2
		c0-0.18,0.03-0.32,0.1-0.41s0.28-0.32,0.65-0.68c0.09,0,0.18-0.02,0.27-0.07c0.36-0.09,0.85-0.25,1.47-0.48
		c0.61-0.23,1.22-0.5,1.81-0.82s1.13-0.67,1.6-1.06c0.48-0.39,0.78-0.81,0.92-1.26c0.09-0.36,0.1-0.61,0.03-0.75
		s-0.22-0.34-0.44-0.61c-0.36-0.5-0.87-0.64-1.5-0.41c-0.5,0.23-0.9,0.49-1.19,0.79c-0.03,0.03-0.08,0.07-0.11,0.11
		c-0.05-0.05-0.12-0.1-0.26-0.14c-0.45-0.14-1.3-0.2-2.53-0.2c-0.64,0-1.18-0.01-1.64-0.03s-0.71-0.08-0.75-0.17
		c-0.05-0.09-0.03-0.25,0.03-0.48c0.07-0.23,0.15-0.48,0.24-0.75c0.23-0.68,0.25-1.07,0.07-1.16c-0.23-0.14-0.47-0.15-0.72-0.03
		c-0.25,0.11-0.48,0.3-0.68,0.55s-0.37,0.54-0.48,0.85c-0.11,0.32-0.15,0.64-0.1,0.96c0.14,0.46-0.09,1.21-0.68,2.25
		c-0.73,1.32-1.32,2.39-1.78,3.21s-0.83,1.48-1.13,1.98c-0.3,0.5-0.56,0.89-0.78,1.16c-0.23,0.27-0.48,0.52-0.75,0.75l-0.68,0.61
		l0.07-2.25c0.04-0.64,0.09-1.19,0.14-1.67s0.09-0.72,0.14-0.72c0.14-0.14,0.16-0.34,0.07-0.61c-0.09-0.36-0.02-0.73,0.2-1.09
		c0.32-0.68,0.5-1.57,0.55-2.66c0.04-0.36-0.18-0.57-0.68-0.61c-0.32-0.04-0.55,0-0.68,0.14c-0.14,0.14-0.32,0.46-0.55,0.96
		c-0.26,0.62-0.46,1.37-0.6,2.25c-0.84,0.43-1.55,0.73-2.13,0.89c-0.64,0.18-1.3,0.23-1.98,0.14c0-0.09,0.03-0.28,0.1-0.58
		c0.07-0.3,0.12-0.51,0.17-0.65c0.14-0.5,0.12-0.94-0.03-1.33c-0.16-0.39-0.47-0.65-0.92-0.78c-0.5-0.18-1.02-0.23-1.57-0.14
		s-1.04,0.3-1.47,0.61c-0.43,0.32-0.8,0.69-1.09,1.13c-0.3,0.43-0.44,0.9-0.44,1.4c0,0.68,0.55,1.14,1.64,1.37
		c0.18,0,0.4,0.02,0.65,0.07s0.44,0.07,0.58,0.07l-1.16,0.61c-0.37,0.18-0.95,0.42-1.74,0.72c-0.8,0.3-1.38,0.47-1.74,0.51
		c-0.64,0.09-1.01,0.06-1.13-0.1c-0.11-0.16-0.19-0.35-0.24-0.58c-0.09-0.41-0.01-0.88,0.24-1.4s0.59-1.06,1.02-1.6
		c0.43-0.55,0.92-1.06,1.47-1.54c0.55-0.48,1.09-0.85,1.64-1.13c0.91-0.45,1.37-0.8,1.37-1.02c0-0.18-0.03-0.38-0.1-0.58
		C59.45,29.1,59.26,29,58.94,29c-0.14,0-0.41,0.13-0.82,0.38s-0.88,0.58-1.4,0.99s-1.05,0.88-1.57,1.4
		C54.63,32.29,54.18,32.84,53.82,33.44z M77.65,34.53c0.01-0.01,0.03-0.03,0.04-0.04C77.7,34.51,77.7,34.53,77.65,34.53z
		 M82.32,30.53c0.48,0.02,0.63,0.22,0.44,0.58c-0.14,0.27-0.41,0.56-0.82,0.85c-0.41,0.3-0.88,0.58-1.4,0.85
		c-0.52,0.27-1.05,0.54-1.57,0.79c-0.32,0.15-0.58,0.27-0.82,0.38c0.23-0.26,0.48-0.54,0.75-0.86c0.48-0.57,0.88-0.99,1.19-1.26
		C81.1,30.96,81.84,30.51,82.32,30.53z M59.28,34.26c-0.73-0.14-1.14-0.26-1.23-0.38c-0.09-0.11,0-0.4,0.27-0.85v0.07
		c0.23-0.45,0.61-0.85,1.16-1.19c0.55-0.34,1.07-0.47,1.57-0.38c0.32,0.05,0.52,0.11,0.61,0.2s0.16,0.32,0.2,0.68
		c0.09,0.59,0,1.02-0.27,1.3c-0.18,0.23-0.49,0.4-0.92,0.51C60.25,34.34,59.78,34.35,59.28,34.26z"/>
	<path class="st0" d="M116.56,27.36c0.45-0.27,0.82-0.73,1.09-1.37c0.09-0.27,0.05-0.48-0.14-0.61c-0.18-0.14-0.46-0.11-0.82,0.07
		c-0.23,0.14-0.36,0.18-0.41,0.14c-0.14-0.09-0.3,0.11-0.48,0.61s-0.25,0.84-0.2,1.02C115.78,27.59,116.1,27.63,116.56,27.36z"/>
	<path class="st0" d="M172.44,24.39c-0.39-0.07-1.42-0.15-3.11-0.24c-0.5-0.05-1.14-0.09-1.91-0.14c-0.78-0.04-1.63-0.08-2.56-0.1
		s-1.91-0.03-2.94-0.03s-1.99,0-2.9,0c-0.91,0-1.78,0-2.59,0c-0.82,0-1.53,0-2.12,0s-1.23-0.02-1.91-0.07
		c0.27-0.27,0.57-0.6,0.89-0.99c0.32-0.39,0.63-0.79,0.92-1.2c0.3-0.41,0.57-0.78,0.82-1.13c0.25-0.34,0.42-0.62,0.51-0.85
		c0.45-0.91,0.42-1.39-0.1-1.43c-0.53-0.04-1.24,0.34-2.15,1.16c-0.27,0.27-0.6,0.58-0.99,0.92s-0.76,0.71-1.13,1.09
		c-0.37,0.39-0.71,0.75-1.03,1.09c-0.32,0.34-0.55,0.6-0.68,0.79c-0.18,0.23-0.4,0.41-0.65,0.55s-0.72,0.24-1.4,0.31
		s-1.7,0.11-3.04,0.14c-0.33,0.01-0.69,0.01-1.09,0.01c1.88-1.96,3.17-3.71,3.85-5.24c0.64-1.41,0.69-2.32,0.17-2.73
		s-1.38-0.23-2.56,0.55c-0.41,0.27-1.01,0.77-1.81,1.5s-1.65,1.54-2.56,2.42c-0.91,0.89-1.79,1.79-2.63,2.7
		c-0.27,0.29-0.5,0.56-0.74,0.83c-1.29,0.01-2.39,0.03-3.25,0.06c-1.23,0.05-2.15,0.1-2.77,0.17c-0.61,0.07-1,0.16-1.16,0.27
		s-0.22,0.28-0.17,0.51c0,0.09,0.08,0.15,0.24,0.17s0.43,0.03,0.82,0.03c0.39,0,0.92-0.01,1.6-0.03c0.68-0.02,1.55-0.06,2.59-0.1
		c0.42-0.02,0.81-0.04,1.21-0.06c-0.15,0.18-0.32,0.37-0.45,0.54c-0.5,0.64-1.04,1.35-1.6,2.15c-0.57,0.8-1.01,1.47-1.33,2.01
		c-0.32,0.5-0.55,0.93-0.68,1.3c-0.04,0.1-0.08,0.19-0.12,0.28c-0.66,0.23-1.43,0.52-2.31,0.88c-0.89,0.36-1.83,0.77-2.83,1.23
		s-1.87,0.89-2.59,1.3c-0.59,0.32-1.09,0.58-1.5,0.78c-0.41,0.2-0.61,0.26-0.61,0.17s0.09-0.3,0.27-0.61
		c0.18-0.32,0.41-0.67,0.68-1.06c0.27-0.39,0.56-0.79,0.85-1.2c0.3-0.41,0.56-0.73,0.79-0.96c0.96-1,1.8-2,2.53-3
		c0.73-1,1.09-1.66,1.09-1.98c0-0.68-0.33-0.77-0.99-0.27c-0.66,0.5-1.36,1.34-2.08,2.53c-0.27,0.5-0.46,0.8-0.55,0.89
		c-0.09,0.09-0.16,0.02-0.21-0.2c-0.14-0.96-0.73-1.43-1.78-1.43c-0.46,0-0.93,0.09-1.43,0.27s-0.75,0.36-0.75,0.55
		c0,0.14-0.11,0.2-0.34,0.2c-0.14,0-0.31,0.11-0.51,0.34c-0.21,0.23-0.42,0.51-0.65,0.85s-0.44,0.72-0.65,1.13
		c-0.2,0.41-0.35,0.77-0.44,1.09c-0.77,0.6-1.72,1.24-2.87,1.92c-0.37,0.23-0.91,0.51-1.64,0.85c-0.73,0.34-1.21,0.51-1.43,0.51
		c-0.27,0-0.48-0.14-0.62-0.41c-0.09-0.23,0.01-0.72,0.31-1.47c0.29-0.75,0.92-1.85,1.88-3.31c0.23-0.36,0.27-0.64,0.14-0.82
		c-0.14-0.18-0.39-0.18-0.75,0c-0.18,0.09-0.39,0.3-0.62,0.61c-0.23,0.32-0.44,0.71-0.65,1.16c-0.21,0.46-0.41,0.92-0.62,1.4
		c-0.2,0.48-0.35,0.9-0.44,1.26c-0.23,0.46-0.33,0.81-0.31,1.06c0.02,0.25,0.08,0.51,0.17,0.78c0.23,0.5,0.53,0.76,0.92,0.79
		c0.39,0.02,1.01-0.15,1.88-0.51c0.36-0.14,0.89-0.43,1.57-0.89c0.68-0.45,1.35-0.94,2.01-1.47c0.32-0.25,0.61-0.5,0.89-0.74
		c-0.05,0.39-0.03,0.77,0.07,1.15c0.16,0.61,0.42,1.01,0.78,1.19c0.23,0.14,0.48,0.17,0.75,0.1s0.73-0.28,1.37-0.65l1.43-0.82
		l-0.55,0.89c-0.14,0.23-0.47,0.56-0.99,0.99s-1.13,0.85-1.81,1.26c-0.91,0.59-1.83,1.24-2.76,1.95c-0.33,0.25-0.65,0.5-0.96,0.76
		c-0.33-0.05-0.64-0.1-0.98-0.14c-1.55-0.2-3.16-0.36-4.85-0.48c-1.68-0.11-3.37-0.19-5.05-0.24c-1.18,0-2.17-0.01-2.97-0.03
		s-1.22-0.06-1.26-0.1c0.14-1.09,0.26-2,0.38-2.73c0.11-0.73,0.23-1.43,0.34-2.12c0.11-0.68,0.22-1.16,0.31-1.43
		c0.04-0.09,0.15-0.24,0.31-0.44c0.16-0.2,0.35-0.42,0.58-0.65c0.23-0.23,0.42-0.42,0.58-0.58s0.22-0.26,0.17-0.31
		c-0.09-0.14,0.04-0.34,0.41-0.61c0.14-0.14,0.35-0.38,0.65-0.72c0.29-0.34,0.58-0.69,0.85-1.06c0.32-0.36,0.64-0.74,0.96-1.13
		s0.57-0.69,0.75-0.92c1.64-2.05,2.9-3.91,3.79-5.6c0.89-1.68,1.51-3.35,1.88-4.98c0.36-1.64,0.39-2.9,0.07-3.79
		s-0.87-1.17-1.64-0.85c-0.41,0.18-1.05,0.81-1.91,1.88c-0.87,1.07-1.68,2.29-2.46,3.65c-1,1.64-1.87,3.33-2.59,5.09
		c-0.73,1.75-1.37,3.58-1.91,5.5c-0.18,0.73-0.34,1.32-0.48,1.78c-0.14,0.46-0.26,0.83-0.38,1.13c-0.11,0.3-0.24,0.56-0.38,0.78
		c-0.14,0.23-0.3,0.46-0.48,0.68c-0.23,0.27-0.45,0.52-0.68,0.75s-0.39,0.34-0.48,0.34c-0.14,0-0.23,0.09-0.27,0.27
		c-0.05,0.09-0.18,0.25-0.41,0.48s-0.48,0.48-0.75,0.75s-0.57,0.59-0.89,0.96s-0.52,0.68-0.62,0.96c-0.18,0.36-0.26,0.63-0.24,0.78
		c0.02,0.16,0.15,0.31,0.38,0.44c0.32,0.18,0.5,0.25,0.55,0.2c0-0.05,0.18-0.26,0.55-0.65c0.36-0.39,0.8-0.83,1.3-1.33l1.84-1.91
		L99.7,35.9c-0.05,0.23-0.06,0.35-0.03,0.38c0.02,0.02,0.06,0.03,0.1,0.03s0.07,0.05,0.07,0.14s-0.05,0.32-0.14,0.68l-0.55,2.66
		h-1.57c-0.46,0.05-0.84,0.07-1.16,0.07c-0.32,0-0.52,0.02-0.61,0.07c-0.09,0-0.4,0.01-0.92,0.03s-1.13,0.08-1.81,0.17
		c-2.05,0.14-4.14,0.36-6.28,0.68s-4.28,0.73-6.42,1.23c-1.09,0.23-2.07,0.44-2.93,0.65c-0.87,0.2-1.37,0.33-1.5,0.38
		c-0.14,0.04-0.26,0.09-0.38,0.14c-0.11,0.05-0.19,0.07-0.24,0.07l-0.41,0.14c-0.05,0-0.09,0.01-0.14,0.03s-0.11,0.03-0.2,0.03
		c-0.05,0.04-0.19,0.1-0.44,0.17s-0.51,0.15-0.79,0.24c-1.46,0.5-2.5,0.88-3.14,1.13s-1.07,0.47-1.3,0.65
		c-0.02,0.01-0.06,0.04-0.08,0.06c-0.03-0.34-0.14-0.69-0.33-1.05c-0.59-1.12-1.8-1.99-3.62-2.63c-0.87-0.32-1.93-0.6-3.21-0.85
		s-2.69-0.48-4.23-0.68c-1.55-0.2-3.16-0.36-4.85-0.48c-1.68-0.11-3.37-0.19-5.05-0.24c-1.18,0-2.17-0.01-2.97-0.03
		c-0.8-0.02-1.22-0.06-1.26-0.1c0.14-1.09,0.26-2,0.38-2.73c0.11-0.73,0.23-1.43,0.34-2.12c0.11-0.68,0.22-1.16,0.31-1.43
		c0.05-0.09,0.15-0.24,0.31-0.44c0.16-0.2,0.35-0.42,0.58-0.65c0.23-0.23,0.42-0.42,0.58-0.58c0.16-0.16,0.22-0.26,0.17-0.31
		c-0.09-0.14,0.04-0.34,0.41-0.61c0.14-0.14,0.35-0.38,0.65-0.72c0.3-0.34,0.58-0.69,0.85-1.06c0.32-0.36,0.64-0.74,0.96-1.13
		s0.57-0.69,0.75-0.92c1.64-2.05,2.9-3.91,3.79-5.6c0.89-1.68,1.51-3.35,1.88-4.98c0.36-1.64,0.39-2.9,0.07-3.79
		s-0.86-1.17-1.64-0.85c-0.41,0.18-1.05,0.81-1.91,1.88c-0.87,1.07-1.68,2.29-2.46,3.65c-1,1.64-1.87,3.33-2.59,5.09
		c-0.73,1.75-1.37,3.58-1.91,5.5c-0.18,0.73-0.34,1.32-0.48,1.78c-0.14,0.46-0.26,0.83-0.38,1.13c-0.11,0.3-0.24,0.56-0.38,0.78
		c-0.14,0.23-0.3,0.46-0.48,0.68c-0.23,0.27-0.46,0.52-0.68,0.75c-0.23,0.23-0.39,0.34-0.48,0.34c-0.14,0-0.23,0.09-0.27,0.27
		c-0.05,0.09-0.18,0.25-0.41,0.48s-0.48,0.48-0.75,0.75s-0.57,0.59-0.89,0.96s-0.52,0.68-0.61,0.96c-0.18,0.36-0.26,0.63-0.24,0.78
		c0.02,0.16,0.15,0.31,0.38,0.44c0.32,0.18,0.5,0.25,0.55,0.2c0-0.05,0.18-0.26,0.55-0.65c0.36-0.39,0.8-0.83,1.3-1.33l1.84-1.91
		l-0.34,1.64c-0.05,0.23-0.06,0.35-0.03,0.38c0.02,0.02,0.06,0.03,0.1,0.03c0.04,0,0.07,0.05,0.07,0.14s-0.05,0.32-0.14,0.68
		l-0.55,2.66h-1.57c-0.46,0.05-0.84,0.07-1.16,0.07s-0.52,0.02-0.61,0.07c-0.09,0-0.4,0.01-0.92,0.03
		c-0.52,0.02-1.13,0.08-1.81,0.17c-2.05,0.14-4.14,0.36-6.28,0.68s-4.28,0.73-6.42,1.23c-1.09,0.23-2.07,0.44-2.94,0.65
		c-0.87,0.2-1.37,0.33-1.5,0.38c-0.14,0.04-0.26,0.09-0.38,0.14c-0.11,0.05-0.19,0.07-0.24,0.07l-0.41,0.14
		c-0.05,0-0.09,0.01-0.14,0.03s-0.11,0.03-0.2,0.03c-0.05,0.04-0.19,0.1-0.44,0.17s-0.51,0.15-0.79,0.24
		c-1.46,0.5-2.5,0.88-3.14,1.13s-1.07,0.47-1.3,0.65c-0.14,0.09-0.37,0.27-0.68,0.55c-0.32,0.27-0.45,0.36-0.41,0.27
		c-0.14,0.27-0.37,0.61-0.68,1.02c-0.32,0.41-0.47,0.88-0.44,1.4c0.02,0.52,0.35,1.1,0.99,1.74c0.64,0.64,1.84,1.3,3.62,1.98
		c0.5,0.23,1.02,0.39,1.57,0.48s0.93,0.16,1.16,0.2c0.18,0.09,0.59,0.15,1.23,0.17c0.64,0.02,1.33,0.02,2.08,0s1.46-0.05,2.12-0.07
		s1.13-0.08,1.4-0.17c0.23-0.05,0.5-0.09,0.82-0.14s0.59-0.09,0.82-0.14c0.5-0.09,0.97-0.17,1.4-0.24c0.43-0.07,0.69-0.13,0.79-0.17
		l0.27-0.14c0.09,0,0.17-0.01,0.24-0.03s0.12-0.03,0.17-0.03c0-0.05,0.08-0.08,0.24-0.1c0.16-0.02,0.35-0.06,0.58-0.1
		c0.45-0.05,0.82-0.16,1.09-0.34c0.09-0.09,0.31-0.2,0.65-0.34s0.63-0.18,0.85-0.14c0.09,0,0.17-0.02,0.24-0.07
		c0.07-0.05,0.15-0.09,0.24-0.14c0.05-0.09,0.25-0.22,0.61-0.38s0.77-0.35,1.23-0.58c1-0.41,1.95-0.96,2.83-1.64
		c0.89-0.68,1.7-1.4,2.42-2.15c0.73-0.75,1.34-1.53,1.84-2.32c0.5-0.8,0.86-1.51,1.09-2.15l0.41-1.43l5.12,0.14
		c2.87,0.09,5.47,0.27,7.82,0.55c2.34,0.27,4.34,0.64,5.97,1.09c1.23,0.36,2.36,0.8,3.38,1.3s1.67,0.98,1.95,1.43
		c0.18,0.27,0.22,0.73,0.1,1.37c-0.11,0.64-0.33,1.14-0.65,1.5c-0.18,0.29-0.17,0.45,0.02,0.5c-0.04,0.18-0.06,0.37-0.05,0.56
		c0.02,0.52,0.35,1.1,0.99,1.74c0.64,0.64,1.84,1.3,3.62,1.98c0.5,0.23,1.02,0.39,1.57,0.48s0.93,0.16,1.16,0.2
		c0.18,0.09,0.59,0.15,1.23,0.17c0.64,0.02,1.33,0.02,2.08,0s1.46-0.05,2.12-0.07s1.13-0.08,1.4-0.17c0.23-0.05,0.5-0.09,0.82-0.14
		s0.59-0.09,0.82-0.14c0.5-0.09,0.97-0.17,1.4-0.24c0.43-0.07,0.69-0.13,0.78-0.17l0.27-0.14c0.09,0,0.17-0.01,0.24-0.03
		s0.12-0.03,0.17-0.03c0-0.05,0.08-0.08,0.24-0.1c0.16-0.02,0.35-0.06,0.58-0.1c0.45-0.05,0.82-0.16,1.09-0.34
		c0.09-0.09,0.31-0.2,0.65-0.34c0.34-0.14,0.62-0.18,0.85-0.14c0.09,0,0.17-0.02,0.24-0.07s0.15-0.09,0.24-0.14
		c0.04-0.09,0.25-0.22,0.61-0.38s0.77-0.35,1.23-0.58c1-0.41,1.95-0.96,2.83-1.64c0.89-0.68,1.69-1.4,2.42-2.15
		c0.73-0.75,1.34-1.53,1.84-2.32c0.5-0.8,0.86-1.51,1.09-2.15l0.41-1.43l5.12,0.14c2.87,0.09,5.47,0.27,7.82,0.55
		c0.55,0.06,1.07,0.13,1.58,0.21c-0.27,0.23-0.54,0.45-0.8,0.68c-0.82,0.73-1.55,1.42-2.18,2.08c-0.64,0.66-1.09,1.24-1.37,1.74
		c-0.09,0.18-0.23,0.42-0.41,0.72c-0.18,0.3-0.36,0.58-0.55,0.85c-0.23,0.27-0.43,0.64-0.61,1.09s-0.32,0.86-0.41,1.23
		c-0.14,0.64-0.19,1.09-0.17,1.37c0.02,0.27,0.15,0.66,0.38,1.16c0.36,0.77,0.82,1.34,1.37,1.71c0.5,0.36,0.91,0.55,1.23,0.55
		s0.67-0.17,1.06-0.51s0.87-0.92,1.43-1.74c0.57-0.82,1.24-1.93,2.01-3.35c0.78-1.41,1.73-3.19,2.87-5.33l0.69-1.32
		c1.17,0.35,2.25,0.77,3.23,1.25c1.03,0.5,1.67,0.98,1.95,1.43c0.18,0.27,0.22,0.73,0.1,1.37c-0.11,0.64-0.33,1.14-0.65,1.5
		c-0.23,0.36-0.16,0.53,0.21,0.51c0.36-0.02,0.73-0.22,1.09-0.58c0.91-0.96,1.07-1.99,0.48-3.11s-1.8-1.99-3.62-2.63
		c-0.65-0.24-1.42-0.46-2.31-0.66l2.17-4.12l2.87-1.5c0.77-0.41,1.59-0.82,2.46-1.23c0.86-0.41,1.69-0.79,2.49-1.13
		s1.49-0.61,2.08-0.82c0.03-0.01,0.05-0.02,0.08-0.03c-0.11,0.15-0.21,0.31-0.35,0.44c-0.23,0.2-0.59,0.42-1.09,0.65
		c-0.55,0.27-1.01,0.51-1.4,0.72c-0.39,0.2-0.58,0.35-0.58,0.44c0,0.18,0.14,0.36,0.41,0.55c0.18,0.14,0.4,0.11,0.65-0.07
		s0.88-0.64,1.88-1.37l-0.75,1.84c-0.36,0.91-0.6,1.7-0.72,2.36c-0.11,0.66-0.06,1.1,0.17,1.33c0.41,0.41,0.93,0,1.57-1.23
		c0.18-0.36,0.44-0.8,0.78-1.3s0.69-0.98,1.06-1.43c0.36-0.45,0.72-0.85,1.06-1.19s0.6-0.56,0.78-0.65
		c0.23-0.14,0.36-0.18,0.41-0.14c0.04,0.05,0.07,0.25,0.07,0.61c0,0.5,0.11,0.99,0.34,1.47s0.52,0.88,0.89,1.19
		c0.36,0.36,0.98,0.55,1.84,0.55s1.59-0.18,2.18-0.55c0.36-0.23,0.74-0.52,1.13-0.89c0.34-0.32,0.64-0.63,0.93-0.93
		c-0.27,0.47-0.56,0.99-0.87,1.58c-0.34,0.66-0.6,1.31-0.78,1.95c-0.27,0.73-0.48,1.33-0.61,1.81c-0.14,0.48-0.23,0.89-0.27,1.23
		c-0.04,0.34-0.06,0.64-0.03,0.89c0.02,0.25,0.08,0.51,0.17,0.78c0.46,0.82,1.07,0.98,1.84,0.48c0.09-0.09,0.19-0.25,0.31-0.48
		s0.22-0.45,0.31-0.68s0.16-0.43,0.2-0.61s0.02-0.27-0.07-0.27c-0.23,0-0.44,0.07-0.65,0.2c-0.2,0.14-0.28,0.25-0.24,0.34
		c-0.14,0.14-0.23,0.2-0.27,0.2c-0.18,0-0.39-0.16-0.61-0.48c-0.23-0.32-0.25-0.89-0.07-1.71c0.27-0.87,0.67-1.8,1.19-2.8
		s1.09-1.99,1.71-2.97c0.61-0.98,1.24-1.93,1.88-2.87c0.64-0.93,1.23-1.79,1.77-2.56c0.36-0.5,0.76-1,1.2-1.5
		c0.43-0.5,0.83-0.93,1.19-1.3l1.23-1.3l3-0.2c1.09-0.04,2.3-0.08,3.62-0.1c1.32-0.02,2.64-0.02,3.96,0s2.57,0.06,3.75,0.1
		c1.18,0.05,2.18,0.09,3,0.14c0.82,0.09,1.57,0.16,2.25,0.2c0.68,0.05,1.12,0.09,1.3,0.14c0.5,0,0.75-0.11,0.75-0.34
		C172.95,24.61,172.82,24.46,172.44,24.39z M120.86,34.6c-0.78,0.5-1.28,0.75-1.5,0.75c-0.23,0-0.34-0.27-0.34-0.82
		c0-0.59,0.25-1.29,0.75-2.08c0.5-0.8,1.02-1.33,1.57-1.6c0.55-0.32,1.07-0.51,1.57-0.58s0.75-0.01,0.75,0.17s0.14,0.27,0.41,0.27
		c0.27,0,0.3,0.18,0.07,0.55c-0.23,0.5-0.67,1.08-1.33,1.74C122.14,33.65,121.5,34.19,120.86,34.6z M101.95,28.79
		c0.23-0.73,0.5-1.59,0.82-2.59s0.66-2,1.02-3c0.36-1,0.66-1.75,0.89-2.25c0.36-0.82,0.77-1.64,1.23-2.46
		c0.45-0.82,0.9-1.59,1.33-2.32s0.86-1.37,1.3-1.91c0.43-0.55,0.79-0.96,1.06-1.23l0.96-0.82l0.41,0.55
		c0.27,0.5,0.34,1.26,0.21,2.29c-0.14,1.02-0.46,2.06-0.96,3.11c-0.41,0.91-0.83,1.74-1.26,2.49s-0.76,1.22-0.99,1.4
		c-0.05,0.09-0.09,0.18-0.14,0.27s-0.09,0.18-0.14,0.27c-0.05,0.14-0.18,0.38-0.41,0.72s-0.49,0.69-0.78,1.06
		c-0.3,0.36-0.57,0.69-0.82,0.99s-0.4,0.44-0.44,0.44c-0.05,0-0.16,0.1-0.34,0.31c-0.18,0.2-0.39,0.44-0.62,0.72
		c-0.23,0.27-0.44,0.55-0.65,0.82s-0.33,0.48-0.38,0.61c0,0.23-0.25,0.55-0.75,0.96c-0.37,0.46-0.62,0.68-0.75,0.68
		C101.65,29.89,101.72,29.52,101.95,28.79z M45.29,28.79c0.23-0.73,0.5-1.59,0.82-2.59s0.66-2,1.02-3s0.66-1.75,0.89-2.25
		c0.36-0.82,0.77-1.64,1.23-2.46c0.45-0.82,0.9-1.59,1.33-2.32s0.86-1.37,1.3-1.91c0.43-0.55,0.78-0.96,1.06-1.23l0.96-0.82
		l0.41,0.55c0.27,0.5,0.34,1.26,0.2,2.29c-0.14,1.02-0.46,2.06-0.96,3.11c-0.41,0.91-0.83,1.74-1.26,2.49
		c-0.43,0.75-0.76,1.22-0.99,1.4c-0.05,0.09-0.09,0.18-0.14,0.27s-0.09,0.18-0.14,0.27c-0.05,0.14-0.18,0.38-0.41,0.72
		s-0.49,0.69-0.78,1.06c-0.3,0.36-0.57,0.69-0.82,0.99s-0.4,0.44-0.44,0.44c-0.05,0-0.16,0.1-0.34,0.31
		c-0.18,0.2-0.39,0.44-0.61,0.72c-0.23,0.27-0.44,0.55-0.65,0.82c-0.2,0.27-0.33,0.48-0.38,0.61c0,0.23-0.25,0.55-0.75,0.96
		c-0.36,0.46-0.61,0.68-0.75,0.68C44.99,29.89,45.06,29.52,45.29,28.79z M38.36,46.34c-1.57,1.46-3.15,2.41-4.74,2.87
		c-0.14,0-0.64,0.16-1.5,0.48c-0.41,0.14-0.76,0.25-1.06,0.34s-0.47,0.14-0.51,0.14c-0.09,0.05-0.23,0.09-0.41,0.14
		s-0.39,0.11-0.61,0.2c0.05,0-0.33,0.08-1.13,0.24s-1.75,0.34-2.87,0.55c-1.12,0.2-2.24,0.39-3.38,0.55c-1.14,0.16-2,0.24-2.59,0.24
		c-1.46,0-2.81-0.14-4.06-0.41s-2.24-0.65-2.97-1.13s-1.13-1.02-1.2-1.64c-0.07-0.61,0.35-1.26,1.26-1.95
		c1.14-0.77,2.3-1.42,3.48-1.95c1.18-0.52,2.47-0.98,3.86-1.37c1.39-0.39,2.92-0.74,4.61-1.06c1.68-0.32,3.62-0.64,5.8-0.96
		c0.82-0.14,1.76-0.27,2.83-0.41c1.07-0.14,2.14-0.25,3.21-0.34s2.05-0.17,2.94-0.24c0.89-0.07,1.58-0.1,2.08-0.1h0.89
		C41.23,42.95,39.93,44.88,38.36,46.34z M95.02,46.34c-1.57,1.46-3.15,2.41-4.74,2.87c-0.14,0-0.64,0.16-1.5,0.48
		c-0.41,0.14-0.76,0.25-1.06,0.34c-0.3,0.09-0.47,0.14-0.51,0.14c-0.09,0.05-0.23,0.09-0.41,0.14s-0.39,0.11-0.62,0.2
		c0.04,0-0.33,0.08-1.13,0.24c-0.8,0.16-1.75,0.34-2.87,0.55c-1.12,0.2-2.24,0.39-3.38,0.55s-2,0.24-2.59,0.24
		c-1.46,0-2.81-0.14-4.06-0.41s-2.24-0.65-2.97-1.13s-1.13-1.02-1.2-1.64c-0.07-0.61,0.35-1.26,1.26-1.95
		c1.14-0.77,2.3-1.42,3.48-1.95c1.18-0.52,2.47-0.98,3.86-1.37s2.92-0.74,4.61-1.06c1.68-0.32,3.62-0.64,5.8-0.96
		c0.82-0.14,1.76-0.27,2.83-0.41s2.14-0.25,3.21-0.34s2.05-0.17,2.94-0.24c0.89-0.07,1.58-0.1,2.08-0.1h0.89
		C97.9,42.95,96.59,44.88,95.02,46.34z M116.9,44.8c-0.64,1.16-1.25,2.26-1.84,3.31c-0.59,1.05-1.13,1.96-1.6,2.73
		c-0.48,0.77-0.83,1.27-1.06,1.5c-0.23,0.32-0.47,0.59-0.72,0.82s-0.42,0.34-0.51,0.34c-0.5-0.05-0.96-0.35-1.37-0.92
		s-0.61-1.17-0.61-1.81c0-0.5,0.14-1.1,0.41-1.81c0.27-0.71,0.65-1.45,1.13-2.22c0.48-0.77,1.02-1.56,1.64-2.36
		c0.61-0.8,1.29-1.54,2.01-2.22c0.2-0.2,0.46-0.43,0.75-0.67c1.17,0.19,2.23,0.41,3.18,0.66C117.88,42.99,117.42,43.86,116.9,44.8z
		 M119.8,39.14c-0.26,0.59-0.61,1.3-1.03,2.14c-0.14-0.03-0.28-0.06-0.43-0.09c-0.72-0.14-1.49-0.27-2.29-0.4
		c0.58-0.43,1.15-0.86,1.71-1.27c0.61-0.46,1.16-0.82,1.64-1.09c0.48-0.27,0.74-0.39,0.78-0.34
		C120.22,38.12,120.1,38.48,119.8,39.14z M140.56,21.9c0.93-0.91,1.83-1.74,2.7-2.49c0.86-0.75,1.64-1.37,2.32-1.84
		c0.68-0.48,1.16-0.72,1.43-0.72c0.18,0,0.2,0.25,0.07,0.75c-0.14,0.5-0.39,1.12-0.75,1.84c-0.73,1.32-1.8,2.7-3.21,4.13
		c-0.23,0.23-0.48,0.47-0.73,0.71c-1.04,0.01-2.24,0.01-3.64,0.01c-0.16,0-0.29,0-0.45,0C138.99,23.49,139.74,22.7,140.56,21.9z
		 M134.75,28.9c0.52-0.71,1.07-1.44,1.64-2.22c0.38-0.52,0.75-0.99,1.1-1.43c1.51-0.08,2.86-0.15,3.98-0.21c0.03,0,0.06,0,0.09,0
		c-1.15,1.03-2.48,2.12-4.04,3.28c-0.41,0.36-0.89,0.75-1.43,1.16c-0.55,0.41-1.05,0.79-1.5,1.13c-0.46,0.34-0.84,0.61-1.16,0.82
		c-0.03,0.02-0.06,0.04-0.09,0.06c-0.03-0.06-0.09-0.11-0.18-0.16c-0.01,0-0.04,0-0.05,0c0.08-0.15,0.2-0.34,0.36-0.58
		C133.8,30.22,134.23,29.6,134.75,28.9z M144.68,31.05c-0.23,0.37-0.44,0.67-0.65,0.92c-0.2,0.25-0.58,0.63-1.13,1.13
		c-0.32,0.27-0.57,0.59-0.75,0.96c-0.07,0.11-0.1,0.19-0.11,0.25c-0.28,0.25-0.54,0.49-0.78,0.7c-0.41,0.36-0.78,0.65-1.13,0.85
		c-0.34,0.2-0.67,0.35-0.99,0.44s-0.68,0.11-1.09,0.07c-0.55-0.04-0.91-0.23-1.09-0.55s-0.31-0.68-0.38-1.09s-0.14-0.82-0.2-1.23
		c-0.07-0.41-0.28-0.75-0.65-1.02c-0.23-0.09-0.69,0.11-1.4,0.61c-0.71,0.5-1.44,1.18-2.22,2.05c-0.87,1-1.21,1.25-1.03,0.75
		c0.18-0.55,0.34-0.99,0.48-1.33s0.29-0.64,0.48-0.89c0.18-0.25,0.43-0.5,0.75-0.75s0.75-0.58,1.3-0.99
		c3.32-2.32,6.13-4.62,8.43-6.89c0.02-0.02,0.04-0.04,0.05-0.06c1.21-0.06,2.22-0.1,3.02-0.11c1.02-0.02,1.73-0.02,2.12,0
		s0.56,0.08,0.51,0.17c-0.46,0.86-1.05,1.89-1.78,3.07C145.73,29.29,145.14,30.27,144.68,31.05z M148.99,26.2
		c-0.37,0.41-0.71,0.78-1.03,1.13c-0.32,0.34-0.57,0.63-0.75,0.85c-0.09,0.11-0.15,0.19-0.22,0.29c0.68-1.04,1.18-1.9,1.49-2.54
		c0.34-0.73,0.67-1.09,0.99-1.09c0.41,0,0.59,0.07,0.55,0.2C149.96,25.17,149.62,25.56,148.99,26.2z M151.51,23.67
		c-0.23,0.18-0.57,0.3-1.02,0.34l-0.96,0.07l1.3-1.37c0.36-0.36,0.8-0.8,1.3-1.3s0.98-0.91,1.43-1.23c0.77-0.59,1.21-0.9,1.3-0.92
		s0.02,0.15-0.21,0.51c-0.09,0.23-0.32,0.57-0.68,1.02c-0.37,0.46-0.75,0.93-1.16,1.43C152.17,23.01,151.74,23.49,151.51,23.67z"/>
	<path class="st0" d="M25.89,55.47c-0.72-0.56-1.67-0.84-2.83-0.84h-5.7v0.62c0.16,0.01,0.35,0.03,0.57,0.07s0.44,0.09,0.66,0.16
		c0.22,0.08,0.35,0.21,0.41,0.37s0.09,0.35,0.09,0.55v9c0,0.23-0.04,0.42-0.12,0.56s-0.21,0.26-0.38,0.33
		c-0.11,0.05-0.29,0.08-0.56,0.11s-0.47,0.05-0.61,0.06v0.62h5.35v-0.62c-0.22-0.01-0.47-0.03-0.73-0.06s-0.45-0.07-0.56-0.11
		c-0.21-0.08-0.35-0.2-0.42-0.36c-0.07-0.15-0.1-0.33-0.1-0.54v-3.78h1.4c0.6,0,1.16-0.08,1.7-0.23s1.02-0.39,1.47-0.72
		c0.45-0.33,0.8-0.74,1.06-1.24c0.25-0.5,0.38-1.08,0.38-1.73C26.98,56.78,26.61,56.04,25.89,55.47z M24.7,58.96
		c-0.06,0.3-0.2,0.59-0.4,0.87c-0.2,0.29-0.5,0.54-0.89,0.73c-0.4,0.2-0.91,0.29-1.54,0.29h-0.9v-5.51h1.24
		c0.5,0,0.91,0.08,1.25,0.23s0.6,0.37,0.81,0.64c0.19,0.26,0.33,0.56,0.41,0.91s0.12,0.69,0.12,1.02
		C24.8,58.39,24.76,58.66,24.7,58.96z"/>
	<path class="st0" d="M36.73,58.31c0.88,0.08,1.33,0.38,1.33,0.9v2.7h-4.59v-2.77c0-0.28,0.09-0.47,0.28-0.6s0.52-0.2,1.02-0.23
		v-0.56h-4.32v0.56c0.88,0.08,1.33,0.38,1.33,0.9v6.57c0,0.22-0.05,0.39-0.16,0.51s-0.33,0.2-0.69,0.22l-0.48,0.04v0.55h4.32v-0.55
		c-0.49-0.05-0.83-0.13-1.02-0.25s-0.28-0.32-0.28-0.61v-3.11h4.59v3.18c0,0.44-0.28,0.69-0.84,0.74l-0.48,0.04v0.55h4.32v-0.55
		c-0.45-0.03-0.78-0.11-0.99-0.23s-0.32-0.33-0.32-0.62v-6.57c0-0.52,0.44-0.79,1.31-0.83v-0.56h-4.32v0.58H36.73z"/>
	<path class="st0" d="M49.34,57.53c-1.35,0-2.49,0.46-3.41,1.39c-0.93,0.93-1.39,2.11-1.39,3.53s0.46,2.59,1.38,3.51
		c0.92,0.92,2.06,1.38,3.43,1.38c1.34,0,2.48-0.46,3.4-1.38c0.93-0.92,1.39-2.09,1.39-3.52c0-1.44-0.45-2.62-1.36-3.54
		C51.86,57.99,50.72,57.53,49.34,57.53z M51.51,65.56c-0.5,0.73-1.22,1.09-2.17,1.09c-1.94,0-2.91-1.4-2.91-4.21
		c0-2.84,0.97-4.25,2.91-4.25c1.95,0,2.92,1.42,2.92,4.25C52.26,63.8,52.01,64.84,51.51,65.56z"/>
	<path class="st0" d="M57.01,60.38h0.58c0.19-0.64,0.41-1.1,0.65-1.36s0.42-0.44,0.54-0.52s0.59-0.13,1.42-0.13h0.41v7.36
		c0,0.42-0.21,0.66-0.64,0.73s-0.75,0.11-0.98,0.11v0.55h4.9v-0.55l-0.73-0.11c-0.59-0.08-0.88-0.34-0.88-0.77v-7.3h0.4
		c0.78,0,1.24,0.04,1.39,0.12s0.35,0.27,0.6,0.55s0.46,0.73,0.64,1.34h0.58v-2.63h-8.88C57.01,57.77,57.01,60.38,57.01,60.38z"/>
	<path class="st0" d="M73.57,57.53c-1.35,0-2.49,0.46-3.41,1.39c-0.93,0.93-1.39,2.11-1.39,3.53s0.46,2.59,1.38,3.51
		c0.92,0.92,2.06,1.38,3.43,1.38c1.34,0,2.48-0.46,3.4-1.38c0.93-0.92,1.39-2.09,1.39-3.52c0-1.44-0.45-2.62-1.36-3.54
		C76.09,57.99,74.95,57.53,73.57,57.53z M75.74,65.56c-0.5,0.73-1.22,1.09-2.17,1.09c-1.94,0-2.91-1.4-2.91-4.21
		c0-2.84,0.97-4.25,2.91-4.25c1.95,0,2.92,1.42,2.92,4.25C76.49,63.8,76.24,64.84,75.74,65.56z"/>
	<path class="st0" d="M87.03,63.45c0.08,0.01,0.17,0.02,0.29,0.03c0.47,0.04,0.82,0.12,1.04,0.23s0.33,0.37,0.33,0.77v0.63
		c-0.02,0.61-0.04,0.94-0.05,0.98c-0.47,0.38-1.06,0.56-1.77,0.56c-1.05,0-1.86-0.39-2.44-1.17s-0.87-1.79-0.87-3.04
		c0-1.31,0.27-2.35,0.8-3.11s1.31-1.14,2.32-1.14c0.84,0,1.47,0.23,1.9,0.69s0.76,1.17,0.99,2.14h0.63l-0.07-3.28H89.5l-0.26,0.45
		c-0.77-0.43-1.62-0.64-2.54-0.64c-1.45,0-2.65,0.47-3.6,1.4s-1.42,2.12-1.42,3.57c0,1.38,0.46,2.53,1.37,3.44s2.08,1.37,3.49,1.37
		c1.21,0,2.47-0.27,3.76-0.82l-0.04-1.37v-0.78c0-0.5,0.36-0.8,1.09-0.88c0.08-0.01,0.16-0.01,0.23-0.03V62.9h-4.55V63.45z"/>
	<path class="st0" d="M102.66,65.49l-1.2-1.44c-0.16-0.21-0.34-0.44-0.54-0.7c-0.2-0.26-0.42-0.54-0.67-0.84
		c1.62-0.42,2.43-1.26,2.43-2.52c0-0.7-0.31-1.24-0.93-1.64c-0.62-0.39-1.42-0.59-2.4-0.59h-4.79v0.56c0.62,0.07,1,0.16,1.13,0.26
		c0.13,0.11,0.2,0.3,0.2,0.6v6.57c0,0.46-0.26,0.71-0.79,0.76l-0.54,0.06v0.55h4.39v-0.55c-0.55-0.03-0.92-0.1-1.1-0.2
		s-0.27-0.31-0.27-0.62v-2.86h1.01c1.15,1.37,2.2,2.78,3.16,4.23h2.7v-0.55c-0.32-0.01-0.6-0.06-0.84-0.18
		S103.06,65.97,102.66,65.49z M98.5,62.21h-0.91v-3.83h1.19c1.32,0,1.98,0.59,1.98,1.76C100.75,61.52,100,62.21,98.5,62.21z"/>
	<path class="st0" d="M115.04,65.61l-3.26-7.99h-0.65l-1.62,3.9c-0.99,2.42-1.62,3.85-1.89,4.29s-0.74,0.69-1.4,0.73v0.55h3.74
		v-0.55c-0.91-0.06-1.36-0.25-1.36-0.58c0-0.23,0.23-0.9,0.69-2.01h3.35l0.7,1.81c0.06,0.16,0.09,0.3,0.09,0.4
		c0,0.19-0.42,0.32-1.27,0.38v0.55h4.34v-0.55C115.76,66.52,115.28,66.21,115.04,65.61z M109.54,63.29l1.44-3.59l1.41,3.59H109.54z"
		/>
	<path class="st0" d="M126.02,58.35c-0.57-0.4-1.36-0.61-2.36-0.61h-4.62v0.56c0.12,0.02,0.27,0.04,0.44,0.05
		c0.33,0.04,0.56,0.11,0.71,0.21s0.22,0.3,0.22,0.6v6.57c0,0.46-0.26,0.71-0.79,0.76l-0.54,0.06v0.55h4.46v-0.55
		c-0.49-0.03-0.85-0.08-1.09-0.14s-0.36-0.29-0.36-0.68v-2.7h1.19c1.08,0,1.96-0.27,2.61-0.8c0.66-0.53,0.99-1.26,0.99-2.19
		C126.88,59.32,126.6,58.76,126.02,58.35z M122.71,62.39h-0.62v-4.01h0.9c1.32,0,1.99,0.67,1.99,2.01
		C124.98,61.72,124.22,62.39,122.71,62.39z"/>
	<path class="st0" d="M136.46,58.31c0.88,0.08,1.33,0.38,1.33,0.9v2.7h-4.59v-2.77c0-0.28,0.09-0.47,0.28-0.6
		c0.18-0.12,0.52-0.2,1.01-0.23v-0.56h-4.32v0.56c0.88,0.08,1.33,0.38,1.33,0.9v6.57c0,0.22-0.05,0.39-0.16,0.51
		s-0.33,0.2-0.69,0.22l-0.48,0.04v0.55h4.32v-0.55c-0.49-0.05-0.83-0.13-1.01-0.25c-0.19-0.12-0.28-0.32-0.28-0.61v-3.11h4.59v3.18
		c0,0.44-0.28,0.69-0.84,0.74l-0.48,0.04v0.55h4.32v-0.55c-0.45-0.03-0.78-0.11-0.99-0.23s-0.32-0.33-0.32-0.62v-6.57
		c0-0.52,0.44-0.79,1.31-0.83v-0.56h-4.32v0.58H136.46z"/>
	<path class="st0" d="M149.58,58.31c0.87,0.06,1.31,0.23,1.31,0.5c0,0.23-0.76,1.46-2.27,3.69l-0.65-1.12
		c-0.98-1.68-1.48-2.6-1.48-2.76c0-0.19,0.41-0.3,1.23-0.32v-0.56h-4.34v0.56c0.45,0.03,0.84,0.2,1.17,0.52s0.76,0.98,1.29,1.97
		c0.02,0.05,0.05,0.1,0.08,0.15c0.94,1.54,1.41,2.43,1.41,2.66v2.1c0,0.28-0.11,0.48-0.32,0.6c-0.21,0.13-0.64,0.2-1.27,0.23v0.55
		h4.84v-0.55c-0.34-0.01-0.69-0.07-1.05-0.18s-0.54-0.35-0.54-0.72v-1.69c0-0.35,0.03-0.6,0.08-0.75s0.26-0.53,0.64-1.13
		c0.37-0.6,0.79-1.23,1.24-1.89s0.76-1.07,0.92-1.25c0.15-0.18,0.33-0.32,0.54-0.42c0.2-0.1,0.43-0.17,0.69-0.21v-0.56h-3.52
		L149.58,58.31L149.58,58.31z"/>
</g>
</svg>
