<?xml version="1.0" encoding="utf-8"?>
<!-- Generator: Adobe Illustrator 26.0.2, SVG Export Plug-In . SVG Version: 6.00 Build 0)  -->
<svg version="1.1" id="Layer_1" xmlns="http://www.w3.org/2000/svg" xmlns:xlink="http://www.w3.org/1999/xlink" x="0px" y="0px"
	 viewBox="0 0 180 80" style="enable-background:new 0 0 180 80;" xml:space="preserve">
<style type="text/css">
	.st0{fill:#EFEFEF;}
</style>
<g>
	<path class="st0" d="M53.8,33.4c-0.6,0.9-1,1.8-1,2.7c0,0.5,0.1,0.9,0.3,1.3c0.2,0.4,0.5,0.7,0.8,0.8c0.3,0.1,0.7,0.2,1.3,0.1
		c0.5,0,1.1-0.2,1.7-0.4c0.6-0.2,1.2-0.5,1.8-0.8s1.1-0.7,1.6-1.1c0.2-0.2,0.4-0.4,0.6-0.6c0.2-0.2,0.4-0.2,0.6-0.2
		c1,0,2.1-0.2,3.3-0.4c0.6-0.2,1-0.3,1.4-0.6c-0.1,0.6-0.1,1.2-0.1,1.9c0,1,0.1,1.8,0.2,2.6c0.2,0.8,0.4,1.3,0.7,1.7
		c0.2,0.2,0.6,0.3,1,0.3c0.4,0,0.8-0.2,1.2-0.6c0.2-0.2,0.6-0.8,1.1-1.7c0.6-1,1.1-2.1,1.8-3.2l2.2-4.4l1,0.2
		c0.3,0.1,0.6,0.1,1.1,0.1s0.9,0,1.4,0s0.9-0.1,1.3-0.1c0.4-0.1,0.7-0.1,0.9-0.2c-0.2,0.1-0.3,0.3-0.5,0.4c-0.2,0.2-0.6,0.5-1,1
		s-0.8,1-1.3,1.5s-0.8,1-1.1,1.5s-0.5,0.8-0.5,1c0,0.4,0.1,0.7,0.3,0.9c0.1,0.1,0.4,0.2,0.8,0.2c0.4,0,0.9-0.1,1.5-0.2
		c0.6-0.1,1.2-0.3,1.9-0.4s1.4-0.4,2.1-0.5c0.6-0.2,1.2-0.4,1.8-0.7s1.1-0.6,1.5-0.8c0.4-0.3,0.7-0.6,0.9-0.8
		c0.2-0.2,0.3-0.4,0.2-0.5c0,0-0.2,0.1-0.7,0.3c-0.5,0.3-1,0.6-1.6,0.9c-0.3,0.1-0.5,0.2-0.8,0.3s-0.5,0.2-0.7,0.3
		c-0.6,0.2-1.2,0.4-1.9,0.6c-0.7,0.2-1.4,0.3-2,0.4S77.8,36,77.4,36s-0.6-0.1-0.6-0.2c0-0.2,0-0.3,0.1-0.4s0.3-0.3,0.7-0.7
		c0.1,0,0.2,0,0.3-0.1c0.4-0.1,0.8-0.2,1.5-0.5c0.6-0.2,1.2-0.5,1.8-0.8s1.1-0.7,1.6-1.1c0.5-0.4,0.8-0.8,0.9-1.3
		c0.1-0.4,0.1-0.6,0-0.8s-0.2-0.3-0.4-0.6c-0.4-0.5-0.9-0.6-1.5-0.4c-0.5,0.2-0.9,0.5-1.2,0.8c0,0-0.1,0.1-0.1,0.1
		c-0.1,0-0.1-0.1-0.3-0.1c-0.4-0.1-1.3-0.2-2.5-0.2c-0.6,0-1.2,0-1.6,0s-0.7-0.1-0.8-0.2c-0.1-0.1,0-0.2,0-0.5
		c0.1-0.2,0.2-0.5,0.2-0.8c0.2-0.7,0.2-1.1,0.1-1.2c-0.2-0.1-0.5-0.1-0.7,0c-0.2,0.1-0.5,0.3-0.7,0.5s-0.4,0.5-0.5,0.9
		c-0.1,0.3-0.2,0.6-0.1,1c0.1,0.5-0.1,1.2-0.7,2.2c-0.7,1.3-1.3,2.4-1.8,3.2s-0.8,1.5-1.1,2c-0.3,0.5-0.6,0.9-0.8,1.2
		c-0.2,0.3-0.5,0.5-0.8,0.8l-0.7,0.6l0.1-2.2c0-0.6,0.1-1.2,0.1-1.7s0.1-0.7,0.1-0.7c0.1-0.1,0.2-0.3,0.1-0.6
		c-0.1-0.4,0-0.7,0.2-1.1c0.3-0.7,0.5-1.6,0.6-2.7c0-0.4-0.2-0.6-0.7-0.6c-0.3,0-0.6,0-0.7,0.1c-0.1,0.1-0.3,0.5-0.6,1
		c-0.3,0.6-0.5,1.4-0.6,2.2c-0.8,0.4-1.6,0.7-2.1,0.9c-0.6,0.2-1.3,0.2-2,0.1c0-0.1,0-0.3,0.1-0.6c0.1-0.3,0.1-0.5,0.2-0.7
		c0.1-0.5,0.1-0.9,0-1.3c-0.2-0.4-0.5-0.6-0.9-0.8c-0.5-0.2-1-0.2-1.6-0.1s-1,0.3-1.5,0.6c-0.4,0.3-0.8,0.7-1.1,1.1
		C57.2,33,57,33.5,57,34c0,0.7,0.5,1.1,1.6,1.4c0.2,0,0.4,0,0.7,0.1s0.4,0.1,0.6,0.1l-1.2,0.6c-0.4,0.2-1,0.4-1.7,0.7
		c-0.8,0.3-1.4,0.5-1.7,0.5c-0.6,0.1-1,0.1-1.1-0.1c-0.1-0.2-0.2-0.3-0.2-0.6c-0.1-0.4,0-0.9,0.2-1.4s0.6-1.1,1-1.6
		c0.4-0.5,0.9-1.1,1.5-1.5c0.5-0.5,1.1-0.9,1.6-1.1c0.9-0.5,1.4-0.8,1.4-1c0-0.2,0-0.4-0.1-0.6c-0.1-0.3-0.3-0.4-0.6-0.4
		c-0.1,0-0.4,0.1-0.8,0.4s-0.9,0.6-1.4,1s-1,0.9-1.6,1.4C54.6,32.3,54.2,32.8,53.8,33.4z M77.7,34.5C77.7,34.5,77.7,34.5,77.7,34.5
		C77.7,34.5,77.7,34.5,77.7,34.5z M82.3,30.5c0.5,0,0.6,0.2,0.4,0.6c-0.1,0.3-0.4,0.6-0.8,0.9c-0.4,0.3-0.9,0.6-1.4,0.9
		c-0.5,0.3-1.1,0.5-1.6,0.8c-0.3,0.2-0.6,0.3-0.8,0.4c0.2-0.3,0.5-0.5,0.8-0.9c0.5-0.6,0.9-1,1.2-1.3C81.1,31,81.8,30.5,82.3,30.5z
		 M59.3,34.3c-0.7-0.1-1.1-0.3-1.2-0.4c-0.1-0.1,0-0.4,0.3-0.8v0.1c0.2-0.5,0.6-0.8,1.2-1.2c0.5-0.3,1.1-0.5,1.6-0.4
		c0.3,0,0.5,0.1,0.6,0.2s0.2,0.3,0.2,0.7c0.1,0.6,0,1-0.3,1.3c-0.2,0.2-0.5,0.4-0.9,0.5C60.2,34.3,59.8,34.3,59.3,34.3z"/>
	<path class="st0" d="M116.6,27.4c0.4-0.3,0.8-0.7,1.1-1.4c0.1-0.3,0.1-0.5-0.1-0.6c-0.2-0.1-0.5-0.1-0.8,0.1
		c-0.2,0.1-0.4,0.2-0.4,0.1c-0.1-0.1-0.3,0.1-0.5,0.6s-0.2,0.8-0.2,1C115.8,27.6,116.1,27.6,116.6,27.4z"/>
	<path class="st0" d="M172.4,24.4c-0.4-0.1-1.4-0.1-3.1-0.2c-0.5,0-1.1-0.1-1.9-0.1c-0.8,0-1.6-0.1-2.6-0.1s-1.9,0-2.9,0s-2,0-2.9,0
		c-0.9,0-1.8,0-2.6,0c-0.8,0-1.5,0-2.1,0s-1.2,0-1.9-0.1c0.3-0.3,0.6-0.6,0.9-1c0.3-0.4,0.6-0.8,0.9-1.2c0.3-0.4,0.6-0.8,0.8-1.1
		c0.2-0.3,0.4-0.6,0.5-0.9c0.4-0.9,0.4-1.4-0.1-1.4c-0.5,0-1.2,0.3-2.1,1.2c-0.3,0.3-0.6,0.6-1,0.9s-0.8,0.7-1.1,1.1
		c-0.4,0.4-0.7,0.8-1,1.1c-0.3,0.3-0.6,0.6-0.7,0.8c-0.2,0.2-0.4,0.4-0.6,0.5s-0.7,0.2-1.4,0.3s-1.7,0.1-3,0.1c-0.3,0-0.7,0-1.1,0
		c1.9-2,3.2-3.7,3.9-5.2c0.6-1.4,0.7-2.3,0.2-2.7s-1.4-0.2-2.6,0.5c-0.4,0.3-1,0.8-1.8,1.5s-1.6,1.5-2.6,2.4
		c-0.9,0.9-1.8,1.8-2.6,2.7c-0.3,0.3-0.5,0.6-0.7,0.8c-1.3,0-2.4,0-3.2,0.1c-1.2,0-2.1,0.1-2.8,0.2c-0.6,0.1-1,0.2-1.2,0.3
		s-0.2,0.3-0.2,0.5c0,0.1,0.1,0.1,0.2,0.2s0.4,0,0.8,0c0.4,0,0.9,0,1.6,0c0.7,0,1.6-0.1,2.6-0.1c0.4,0,0.8,0,1.2-0.1
		c-0.1,0.2-0.3,0.4-0.4,0.5c-0.5,0.6-1,1.4-1.6,2.1c-0.6,0.8-1,1.5-1.3,2c-0.3,0.5-0.6,0.9-0.7,1.3c0,0.1-0.1,0.2-0.1,0.3
		c-0.7,0.2-1.4,0.5-2.3,0.9c-0.9,0.4-1.8,0.8-2.8,1.2s-1.9,0.9-2.6,1.3c-0.6,0.3-1.1,0.6-1.5,0.8c-0.4,0.2-0.6,0.3-0.6,0.2
		s0.1-0.3,0.3-0.6c0.2-0.3,0.4-0.7,0.7-1.1c0.3-0.4,0.6-0.8,0.8-1.2c0.3-0.4,0.6-0.7,0.8-1c1-1,1.8-2,2.5-3c0.7-1,1.1-1.7,1.1-2
		c0-0.7-0.3-0.8-1-0.3c-0.7,0.5-1.4,1.3-2.1,2.5c-0.3,0.5-0.5,0.8-0.6,0.9c-0.1,0.1-0.2,0-0.2-0.2c-0.1-1-0.7-1.4-1.8-1.4
		c-0.5,0-0.9,0.1-1.4,0.3s-0.8,0.4-0.8,0.5c0,0.1-0.1,0.2-0.3,0.2c-0.1,0-0.3,0.1-0.5,0.3c-0.2,0.2-0.4,0.5-0.7,0.9
		s-0.4,0.7-0.7,1.1c-0.2,0.4-0.3,0.8-0.4,1.1c-0.8,0.6-1.7,1.2-2.9,1.9c-0.4,0.2-0.9,0.5-1.6,0.8c-0.7,0.3-1.2,0.5-1.4,0.5
		c-0.3,0-0.5-0.1-0.6-0.4c-0.1-0.2,0-0.7,0.3-1.5c0.3-0.8,0.9-1.8,1.9-3.3c0.2-0.4,0.3-0.6,0.1-0.8c-0.1-0.2-0.4-0.2-0.8,0
		c-0.2,0.1-0.4,0.3-0.6,0.6c-0.2,0.3-0.4,0.7-0.7,1.2c-0.2,0.5-0.4,0.9-0.6,1.4c-0.2,0.5-0.3,0.9-0.4,1.3c-0.2,0.5-0.3,0.8-0.3,1.1
		c0,0.2,0.1,0.5,0.2,0.8c0.2,0.5,0.5,0.8,0.9,0.8c0.4,0,1-0.2,1.9-0.5c0.4-0.1,0.9-0.4,1.6-0.9c0.7-0.5,1.3-0.9,2-1.5
		c0.3-0.2,0.6-0.5,0.9-0.7c-0.1,0.4,0,0.8,0.1,1.2c0.2,0.6,0.4,1,0.8,1.2c0.2,0.1,0.5,0.2,0.8,0.1s0.7-0.3,1.4-0.7l1.4-0.8l-0.6,0.9
		c-0.1,0.2-0.5,0.6-1,1s-1.1,0.8-1.8,1.3c-0.9,0.6-1.8,1.2-2.8,2c-0.3,0.2-0.7,0.5-1,0.8c-0.3,0-0.6-0.1-1-0.1
		c-1.6-0.2-3.2-0.4-4.8-0.5c-1.7-0.1-3.4-0.2-5.1-0.2c-1.2,0-2.2,0-3,0s-1.2-0.1-1.3-0.1c0.1-1.1,0.3-2,0.4-2.7
		c0.1-0.7,0.2-1.4,0.3-2.1c0.1-0.7,0.2-1.2,0.3-1.4c0-0.1,0.2-0.2,0.3-0.4c0.2-0.2,0.3-0.4,0.6-0.7c0.2-0.2,0.4-0.4,0.6-0.6
		s0.2-0.3,0.2-0.3c-0.1-0.1,0-0.3,0.4-0.6c0.1-0.1,0.3-0.4,0.7-0.7c0.3-0.3,0.6-0.7,0.8-1.1c0.3-0.4,0.6-0.7,1-1.1s0.6-0.7,0.8-0.9
		c1.6-2,2.9-3.9,3.8-5.6c0.9-1.7,1.5-3.4,1.9-5c0.4-1.6,0.4-2.9,0.1-3.8s-0.9-1.2-1.6-0.9c-0.4,0.2-1.1,0.8-1.9,1.9
		c-0.9,1.1-1.7,2.3-2.5,3.6c-1,1.6-1.9,3.3-2.6,5.1c-0.7,1.8-1.4,3.6-1.9,5.5c-0.2,0.7-0.3,1.3-0.5,1.8c-0.1,0.5-0.3,0.8-0.4,1.1
		c-0.1,0.3-0.2,0.6-0.4,0.8c-0.1,0.2-0.3,0.5-0.5,0.7c-0.2,0.3-0.4,0.5-0.7,0.8s-0.4,0.3-0.5,0.3c-0.1,0-0.2,0.1-0.3,0.3
		c-0.1,0.1-0.2,0.2-0.4,0.5s-0.5,0.5-0.8,0.8s-0.6,0.6-0.9,1s-0.5,0.7-0.6,1c-0.2,0.4-0.3,0.6-0.2,0.8c0,0.2,0.2,0.3,0.4,0.4
		c0.3,0.2,0.5,0.2,0.6,0.2c0,0,0.2-0.3,0.6-0.7c0.4-0.4,0.8-0.8,1.3-1.3l1.8-1.9l-0.3,1.6c-0.1,0.2-0.1,0.3,0,0.4c0,0,0.1,0,0.1,0
		s0.1,0,0.1,0.1s-0.1,0.3-0.1,0.7l-0.6,2.7h-1.6c-0.5,0-0.8,0.1-1.2,0.1c-0.3,0-0.5,0-0.6,0.1c-0.1,0-0.4,0-0.9,0s-1.1,0.1-1.8,0.2
		c-2.1,0.1-4.1,0.4-6.3,0.7s-4.3,0.7-6.4,1.2c-1.1,0.2-2.1,0.4-2.9,0.7c-0.9,0.2-1.4,0.3-1.5,0.4c-0.1,0-0.3,0.1-0.4,0.1
		c-0.1,0-0.2,0.1-0.2,0.1l-0.4,0.1c-0.1,0-0.1,0-0.1,0s-0.1,0-0.2,0c-0.1,0-0.2,0.1-0.4,0.2s-0.5,0.2-0.8,0.2
		c-1.5,0.5-2.5,0.9-3.1,1.1s-1.1,0.5-1.3,0.7c0,0-0.1,0-0.1,0.1c0-0.3-0.1-0.7-0.3-1c-0.6-1.1-1.8-2-3.6-2.6
		c-0.9-0.3-1.9-0.6-3.2-0.8s-2.7-0.5-4.2-0.7c-1.5-0.2-3.2-0.4-4.8-0.5c-1.7-0.1-3.4-0.2-5-0.2c-1.2,0-2.2,0-3,0
		c-0.8,0-1.2-0.1-1.3-0.1c0.1-1.1,0.3-2,0.4-2.7c0.1-0.7,0.2-1.4,0.3-2.1c0.1-0.7,0.2-1.2,0.3-1.4c0-0.1,0.2-0.2,0.3-0.4
		c0.2-0.2,0.3-0.4,0.6-0.7c0.2-0.2,0.4-0.4,0.6-0.6c0.2-0.2,0.2-0.3,0.2-0.3c-0.1-0.1,0-0.3,0.4-0.6c0.1-0.1,0.3-0.4,0.7-0.7
		c0.3-0.3,0.6-0.7,0.8-1.1c0.3-0.4,0.6-0.7,1-1.1s0.6-0.7,0.8-0.9c1.6-2,2.9-3.9,3.8-5.6c0.9-1.7,1.5-3.4,1.9-5
		c0.4-1.6,0.4-2.9,0.1-3.8s-0.9-1.2-1.6-0.9c-0.4,0.2-1,0.8-1.9,1.9c-0.9,1.1-1.7,2.3-2.5,3.6c-1,1.6-1.9,3.3-2.6,5.1
		c-0.7,1.8-1.4,3.6-1.9,5.5c-0.2,0.7-0.3,1.3-0.5,1.8c-0.1,0.5-0.3,0.8-0.4,1.1c-0.1,0.3-0.2,0.6-0.4,0.8c-0.1,0.2-0.3,0.5-0.5,0.7
		c-0.2,0.3-0.5,0.5-0.7,0.8c-0.2,0.2-0.4,0.3-0.5,0.3c-0.1,0-0.2,0.1-0.3,0.3c0,0.1-0.2,0.2-0.4,0.5s-0.5,0.5-0.8,0.8
		s-0.6,0.6-0.9,1s-0.5,0.7-0.6,1c-0.2,0.4-0.3,0.6-0.2,0.8c0,0.2,0.2,0.3,0.4,0.4c0.3,0.2,0.5,0.2,0.5,0.2c0,0,0.2-0.3,0.5-0.7
		c0.4-0.4,0.8-0.8,1.3-1.3l1.8-1.9l-0.3,1.6c0,0.2-0.1,0.3,0,0.4c0,0,0.1,0,0.1,0c0,0,0.1,0,0.1,0.1s0,0.3-0.1,0.7l-0.5,2.7h-1.6
		c-0.5,0-0.8,0.1-1.2,0.1s-0.5,0-0.6,0.1c-0.1,0-0.4,0-0.9,0c-0.5,0-1.1,0.1-1.8,0.2c-2,0.1-4.1,0.4-6.3,0.7s-4.3,0.7-6.4,1.2
		c-1.1,0.2-2.1,0.4-2.9,0.7c-0.9,0.2-1.4,0.3-1.5,0.4c-0.1,0-0.3,0.1-0.4,0.1c-0.1,0-0.2,0.1-0.2,0.1l-0.4,0.1c0,0-0.1,0-0.1,0
		s-0.1,0-0.2,0c0,0-0.2,0.1-0.4,0.2s-0.5,0.2-0.8,0.2c-1.5,0.5-2.5,0.9-3.1,1.1s-1.1,0.5-1.3,0.7c-0.1,0.1-0.4,0.3-0.7,0.5
		c-0.3,0.3-0.4,0.4-0.4,0.3c-0.1,0.3-0.4,0.6-0.7,1c-0.3,0.4-0.5,0.9-0.4,1.4c0,0.5,0.4,1.1,1,1.7c0.6,0.6,1.8,1.3,3.6,2
		c0.5,0.2,1,0.4,1.6,0.5s0.9,0.2,1.2,0.2c0.2,0.1,0.6,0.2,1.2,0.2c0.6,0,1.3,0,2.1,0s1.5,0,2.1-0.1s1.1-0.1,1.4-0.2
		c0.2,0,0.5-0.1,0.8-0.1s0.6-0.1,0.8-0.1c0.5-0.1,1-0.2,1.4-0.2c0.4-0.1,0.7-0.1,0.8-0.2l0.3-0.1c0.1,0,0.2,0,0.2,0s0.1,0,0.2,0
		c0,0,0.1-0.1,0.2-0.1c0.2,0,0.4-0.1,0.6-0.1c0.5,0,0.8-0.2,1.1-0.3c0.1-0.1,0.3-0.2,0.6-0.3s0.6-0.2,0.9-0.1c0.1,0,0.2,0,0.2-0.1
		c0.1,0,0.2-0.1,0.2-0.1c0-0.1,0.2-0.2,0.6-0.4s0.8-0.3,1.2-0.6c1-0.4,2-1,2.8-1.6c0.9-0.7,1.7-1.4,2.4-2.2c0.7-0.8,1.3-1.5,1.8-2.3
		c0.5-0.8,0.9-1.5,1.1-2.2l0.4-1.4l5.1,0.1c2.9,0.1,5.5,0.3,7.8,0.5c2.3,0.3,4.3,0.6,6,1.1c1.2,0.4,2.4,0.8,3.4,1.3s1.7,1,1.9,1.4
		c0.2,0.3,0.2,0.7,0.1,1.4c-0.1,0.6-0.3,1.1-0.7,1.5c-0.2,0.3-0.2,0.5,0,0.5c0,0.2-0.1,0.4-0.1,0.6c0,0.5,0.3,1.1,1,1.7
		c0.6,0.6,1.8,1.3,3.6,2c0.5,0.2,1,0.4,1.6,0.5s0.9,0.2,1.2,0.2c0.2,0.1,0.6,0.2,1.2,0.2c0.6,0,1.3,0,2.1,0s1.5,0,2.1-0.1
		s1.1-0.1,1.4-0.2c0.2,0,0.5-0.1,0.8-0.1s0.6-0.1,0.8-0.1c0.5-0.1,1-0.2,1.4-0.2c0.4-0.1,0.7-0.1,0.8-0.2l0.3-0.1c0.1,0,0.2,0,0.2,0
		s0.1,0,0.2,0c0,0,0.1-0.1,0.2-0.1c0.2,0,0.3-0.1,0.6-0.1c0.4,0,0.8-0.2,1.1-0.3c0.1-0.1,0.3-0.2,0.7-0.3c0.3-0.1,0.6-0.2,0.8-0.1
		c0.1,0,0.2,0,0.2-0.1s0.2-0.1,0.2-0.1c0-0.1,0.2-0.2,0.6-0.4s0.8-0.3,1.2-0.6c1-0.4,1.9-1,2.8-1.6c0.9-0.7,1.7-1.4,2.4-2.2
		c0.7-0.8,1.3-1.5,1.8-2.3c0.5-0.8,0.9-1.5,1.1-2.2l0.4-1.4l5.1,0.1c2.9,0.1,5.5,0.3,7.8,0.5c0.6,0.1,1.1,0.1,1.6,0.2
		c-0.3,0.2-0.5,0.5-0.8,0.7c-0.8,0.7-1.6,1.4-2.2,2.1c-0.6,0.7-1.1,1.2-1.4,1.7c-0.1,0.2-0.2,0.4-0.4,0.7c-0.2,0.3-0.4,0.6-0.6,0.8
		c-0.2,0.3-0.4,0.6-0.6,1.1s-0.3,0.9-0.4,1.2c-0.1,0.6-0.2,1.1-0.2,1.4c0,0.3,0.2,0.7,0.4,1.2c0.4,0.8,0.8,1.3,1.4,1.7
		c0.5,0.4,0.9,0.5,1.2,0.5s0.7-0.2,1.1-0.5s0.9-0.9,1.4-1.7c0.6-0.8,1.2-1.9,2-3.3c0.8-1.4,1.7-3.2,2.9-5.3l0.7-1.3
		c1.2,0.3,2.2,0.8,3.2,1.2c1,0.5,1.7,1,1.9,1.4c0.2,0.3,0.2,0.7,0.1,1.4c-0.1,0.6-0.3,1.1-0.7,1.5c-0.2,0.4-0.2,0.5,0.2,0.5
		c0.4,0,0.7-0.2,1.1-0.6c0.9-1,1.1-2,0.5-3.1s-1.8-2-3.6-2.6c-0.7-0.2-1.4-0.5-2.3-0.7l2.2-4.1l2.9-1.5c0.8-0.4,1.6-0.8,2.5-1.2
		c0.9-0.4,1.7-0.8,2.5-1.1s1.5-0.6,2.1-0.8c0,0,0.1,0,0.1,0c-0.1,0.2-0.2,0.3-0.4,0.4c-0.2,0.2-0.6,0.4-1.1,0.7
		c-0.6,0.3-1,0.5-1.4,0.7c-0.4,0.2-0.6,0.3-0.6,0.4c0,0.2,0.1,0.4,0.4,0.5c0.2,0.1,0.4,0.1,0.6-0.1s0.9-0.6,1.9-1.4l-0.8,1.8
		c-0.4,0.9-0.6,1.7-0.7,2.4c-0.1,0.7-0.1,1.1,0.2,1.3c0.4,0.4,0.9,0,1.6-1.2c0.2-0.4,0.4-0.8,0.8-1.3s0.7-1,1.1-1.4
		c0.4-0.5,0.7-0.8,1.1-1.2s0.6-0.6,0.8-0.7c0.2-0.1,0.4-0.2,0.4-0.1c0,0,0.1,0.2,0.1,0.6c0,0.5,0.1,1,0.3,1.5s0.5,0.9,0.9,1.2
		c0.4,0.4,1,0.5,1.8,0.5s1.6-0.2,2.2-0.5c0.4-0.2,0.7-0.5,1.1-0.9c0.3-0.3,0.6-0.6,0.9-0.9c-0.3,0.5-0.6,1-0.9,1.6
		c-0.3,0.7-0.6,1.3-0.8,2c-0.3,0.7-0.5,1.3-0.6,1.8c-0.1,0.5-0.2,0.9-0.3,1.2c0,0.3-0.1,0.6,0,0.9c0,0.2,0.1,0.5,0.2,0.8
		c0.5,0.8,1.1,1,1.8,0.5c0.1-0.1,0.2-0.2,0.3-0.5s0.2-0.5,0.3-0.7s0.2-0.4,0.2-0.6s0-0.3-0.1-0.3c-0.2,0-0.4,0.1-0.6,0.2
		c-0.2,0.1-0.3,0.2-0.2,0.3c-0.1,0.1-0.2,0.2-0.3,0.2c-0.2,0-0.4-0.2-0.6-0.5c-0.2-0.3-0.2-0.9-0.1-1.7c0.3-0.9,0.7-1.8,1.2-2.8
		s1.1-2,1.7-3c0.6-1,1.2-1.9,1.9-2.9c0.6-0.9,1.2-1.8,1.8-2.6c0.4-0.5,0.8-1,1.2-1.5c0.4-0.5,0.8-0.9,1.2-1.3l1.2-1.3l3-0.2
		c1.1,0,2.3-0.1,3.6-0.1c1.3,0,2.6,0,4,0s2.6,0.1,3.8,0.1c1.2,0,2.2,0.1,3,0.1c0.8,0.1,1.6,0.2,2.2,0.2c0.7,0,1.1,0.1,1.3,0.1
		c0.5,0,0.8-0.1,0.8-0.3C172.9,24.6,172.8,24.5,172.4,24.4z M120.9,34.6c-0.8,0.5-1.3,0.8-1.5,0.8c-0.2,0-0.3-0.3-0.3-0.8
		c0-0.6,0.2-1.3,0.8-2.1c0.5-0.8,1-1.3,1.6-1.6c0.6-0.3,1.1-0.5,1.6-0.6s0.8,0,0.8,0.2s0.1,0.3,0.4,0.3c0.3,0,0.3,0.2,0.1,0.5
		c-0.2,0.5-0.7,1.1-1.3,1.7C122.1,33.7,121.5,34.2,120.9,34.6z M101.9,28.8c0.2-0.7,0.5-1.6,0.8-2.6s0.7-2,1-3
		c0.4-1,0.7-1.8,0.9-2.2c0.4-0.8,0.8-1.6,1.2-2.5c0.4-0.8,0.9-1.6,1.3-2.3s0.9-1.4,1.3-1.9c0.4-0.6,0.8-1,1.1-1.2l1-0.8l0.4,0.6
		c0.3,0.5,0.3,1.3,0.2,2.3c-0.1,1-0.5,2.1-1,3.1c-0.4,0.9-0.8,1.7-1.3,2.5s-0.8,1.2-1,1.4c-0.1,0.1-0.1,0.2-0.1,0.3
		s-0.1,0.2-0.1,0.3c-0.1,0.1-0.2,0.4-0.4,0.7s-0.5,0.7-0.8,1.1c-0.3,0.4-0.6,0.7-0.8,1s-0.4,0.4-0.4,0.4c-0.1,0-0.2,0.1-0.3,0.3
		c-0.2,0.2-0.4,0.4-0.6,0.7c-0.2,0.3-0.4,0.5-0.7,0.8s-0.3,0.5-0.4,0.6c0,0.2-0.2,0.5-0.8,1c-0.4,0.5-0.6,0.7-0.8,0.7
		C101.7,29.9,101.7,29.5,101.9,28.8z M45.3,28.8c0.2-0.7,0.5-1.6,0.8-2.6s0.7-2,1-3s0.7-1.8,0.9-2.2c0.4-0.8,0.8-1.6,1.2-2.5
		c0.5-0.8,0.9-1.6,1.3-2.3s0.9-1.4,1.3-1.9c0.4-0.6,0.8-1,1.1-1.2l1-0.8l0.4,0.6c0.3,0.5,0.3,1.3,0.2,2.3c-0.1,1-0.5,2.1-1,3.1
		c-0.4,0.9-0.8,1.7-1.3,2.5c-0.4,0.8-0.8,1.2-1,1.4c0,0.1-0.1,0.2-0.1,0.3s-0.1,0.2-0.1,0.3c0,0.1-0.2,0.4-0.4,0.7s-0.5,0.7-0.8,1.1
		c-0.3,0.4-0.6,0.7-0.8,1s-0.4,0.4-0.4,0.4c0,0-0.2,0.1-0.3,0.3c-0.2,0.2-0.4,0.4-0.6,0.7c-0.2,0.3-0.4,0.5-0.7,0.8
		c-0.2,0.3-0.3,0.5-0.4,0.6c0,0.2-0.2,0.5-0.8,1c-0.4,0.5-0.6,0.7-0.8,0.7C45,29.9,45.1,29.5,45.3,28.8z M38.4,46.3
		c-1.6,1.5-3.2,2.4-4.7,2.9c-0.1,0-0.6,0.2-1.5,0.5c-0.4,0.1-0.8,0.2-1.1,0.3s-0.5,0.1-0.5,0.1c-0.1,0-0.2,0.1-0.4,0.1
		s-0.4,0.1-0.6,0.2c0,0-0.3,0.1-1.1,0.2s-1.8,0.3-2.9,0.5c-1.1,0.2-2.2,0.4-3.4,0.5c-1.1,0.2-2,0.2-2.6,0.2c-1.5,0-2.8-0.1-4.1-0.4
		s-2.2-0.7-3-1.1s-1.1-1-1.2-1.6c-0.1-0.6,0.4-1.3,1.3-2c1.1-0.8,2.3-1.4,3.5-2c1.2-0.5,2.5-1,3.9-1.4c1.4-0.4,2.9-0.7,4.6-1.1
		c1.7-0.3,3.6-0.6,5.8-1c0.8-0.1,1.8-0.3,2.8-0.4c1.1-0.1,2.1-0.2,3.2-0.3s2-0.2,2.9-0.2c0.9-0.1,1.6-0.1,2.1-0.1h0.9
		C41.2,43,39.9,44.9,38.4,46.3z M95,46.3c-1.6,1.5-3.2,2.4-4.7,2.9c-0.1,0-0.6,0.2-1.5,0.5c-0.4,0.1-0.8,0.2-1.1,0.3
		c-0.3,0.1-0.5,0.1-0.5,0.1c-0.1,0-0.2,0.1-0.4,0.1s-0.4,0.1-0.6,0.2c0,0-0.3,0.1-1.1,0.2c-0.8,0.2-1.8,0.3-2.9,0.5
		c-1.1,0.2-2.2,0.4-3.4,0.5s-2,0.2-2.6,0.2c-1.5,0-2.8-0.1-4.1-0.4s-2.2-0.7-3-1.1s-1.1-1-1.2-1.6c-0.1-0.6,0.3-1.3,1.3-2
		c1.1-0.8,2.3-1.4,3.5-2c1.2-0.5,2.5-1,3.9-1.4s2.9-0.7,4.6-1.1c1.7-0.3,3.6-0.6,5.8-1c0.8-0.1,1.8-0.3,2.8-0.4S92,41,93,40.9
		s2.1-0.2,2.9-0.2c0.9-0.1,1.6-0.1,2.1-0.1h0.9C97.9,43,96.6,44.9,95,46.3z M116.9,44.8c-0.6,1.2-1.2,2.3-1.8,3.3
		c-0.6,1-1.1,2-1.6,2.7c-0.5,0.8-0.8,1.3-1.1,1.5c-0.2,0.3-0.5,0.6-0.7,0.8s-0.4,0.3-0.5,0.3c-0.5,0-1-0.3-1.4-0.9s-0.6-1.2-0.6-1.8
		c0-0.5,0.1-1.1,0.4-1.8c0.3-0.7,0.7-1.5,1.1-2.2c0.5-0.8,1-1.6,1.6-2.4c0.6-0.8,1.3-1.5,2-2.2c0.2-0.2,0.5-0.4,0.8-0.7
		c1.2,0.2,2.2,0.4,3.2,0.7C117.9,43,117.4,43.9,116.9,44.8z M119.8,39.1c-0.3,0.6-0.6,1.3-1,2.1c-0.1,0-0.3-0.1-0.4-0.1
		c-0.7-0.1-1.5-0.3-2.3-0.4c0.6-0.4,1.2-0.9,1.7-1.3c0.6-0.5,1.2-0.8,1.6-1.1c0.5-0.3,0.7-0.4,0.8-0.3
		C120.2,38.1,120.1,38.5,119.8,39.1z M140.6,21.9c0.9-0.9,1.8-1.7,2.7-2.5c0.9-0.8,1.6-1.4,2.3-1.8c0.7-0.5,1.2-0.7,1.4-0.7
		c0.2,0,0.2,0.2,0.1,0.8c-0.1,0.5-0.4,1.1-0.8,1.8c-0.7,1.3-1.8,2.7-3.2,4.1c-0.2,0.2-0.5,0.5-0.7,0.7c-1,0-2.2,0-3.6,0
		c-0.2,0-0.3,0-0.4,0C139,23.5,139.7,22.7,140.6,21.9z M134.8,28.9c0.5-0.7,1.1-1.4,1.6-2.2c0.4-0.5,0.8-1,1.1-1.4
		c1.5-0.1,2.9-0.1,4-0.2c0,0,0.1,0,0.1,0c-1.1,1-2.5,2.1-4,3.3c-0.4,0.4-0.9,0.8-1.4,1.2c-0.6,0.4-1.1,0.8-1.5,1.1
		c-0.5,0.3-0.8,0.6-1.2,0.8c0,0-0.1,0-0.1,0.1c0-0.1-0.1-0.1-0.2-0.2c0,0,0,0-0.1,0c0.1-0.1,0.2-0.3,0.4-0.6
		C133.8,30.2,134.2,29.6,134.8,28.9z M144.7,31c-0.2,0.4-0.4,0.7-0.6,0.9c-0.2,0.3-0.6,0.6-1.1,1.1c-0.3,0.3-0.6,0.6-0.8,1
		c-0.1,0.1-0.1,0.2-0.1,0.2c-0.3,0.2-0.5,0.5-0.8,0.7c-0.4,0.4-0.8,0.7-1.1,0.8c-0.3,0.2-0.7,0.3-1,0.4s-0.7,0.1-1.1,0.1
		c-0.6,0-0.9-0.2-1.1-0.5s-0.3-0.7-0.4-1.1s-0.1-0.8-0.2-1.2c-0.1-0.4-0.3-0.8-0.6-1c-0.2-0.1-0.7,0.1-1.4,0.6
		c-0.7,0.5-1.4,1.2-2.2,2c-0.9,1-1.2,1.2-1,0.8c0.2-0.5,0.3-1,0.5-1.3s0.3-0.6,0.5-0.9c0.2-0.2,0.4-0.5,0.8-0.8s0.8-0.6,1.3-1
		c3.3-2.3,6.1-4.6,8.4-6.9c0,0,0,0,0.1-0.1c1.2-0.1,2.2-0.1,3-0.1c1,0,1.7,0,2.1,0s0.6,0.1,0.5,0.2c-0.5,0.9-1.1,1.9-1.8,3.1
		C145.7,29.3,145.1,30.3,144.7,31z M149,26.2c-0.4,0.4-0.7,0.8-1,1.1c-0.3,0.3-0.6,0.6-0.8,0.9c-0.1,0.1-0.1,0.2-0.2,0.3
		c0.7-1,1.2-1.9,1.5-2.5c0.3-0.7,0.7-1.1,1-1.1c0.4,0,0.6,0.1,0.6,0.2C150,25.2,149.6,25.6,149,26.2z M151.5,23.7
		c-0.2,0.2-0.6,0.3-1,0.3l-1,0.1l1.3-1.4c0.4-0.4,0.8-0.8,1.3-1.3s1-0.9,1.4-1.2c0.8-0.6,1.2-0.9,1.3-0.9s0,0.1-0.2,0.5
		c-0.1,0.2-0.3,0.6-0.7,1c-0.4,0.5-0.8,0.9-1.2,1.4C152.2,23,151.7,23.5,151.5,23.7z"/>
	<path class="st0" d="M25.9,55.5c-0.7-0.6-1.7-0.8-2.8-0.8h-5.7v0.6c0.2,0,0.4,0,0.6,0.1s0.4,0.1,0.7,0.2c0.2,0.1,0.4,0.2,0.4,0.4
		s0.1,0.3,0.1,0.5v9c0,0.2,0,0.4-0.1,0.6s-0.2,0.3-0.4,0.3c-0.1,0.1-0.3,0.1-0.6,0.1s-0.5,0.1-0.6,0.1v0.6h5.4v-0.6
		c-0.2,0-0.5,0-0.7-0.1s-0.5-0.1-0.6-0.1c-0.2-0.1-0.4-0.2-0.4-0.4C21,65.8,21,65.6,21,65.4v-3.8h1.4c0.6,0,1.2-0.1,1.7-0.2
		s1-0.4,1.5-0.7c0.5-0.3,0.8-0.7,1.1-1.2c0.2-0.5,0.4-1.1,0.4-1.7C27,56.8,26.6,56,25.9,55.5z M24.7,59c-0.1,0.3-0.2,0.6-0.4,0.9
		c-0.2,0.3-0.5,0.5-0.9,0.7c-0.4,0.2-0.9,0.3-1.5,0.3H21v-5.5h1.2c0.5,0,0.9,0.1,1.2,0.2s0.6,0.4,0.8,0.6c0.2,0.3,0.3,0.6,0.4,0.9
		s0.1,0.7,0.1,1C24.8,58.4,24.8,58.7,24.7,59z"/>
	<path class="st0" d="M36.7,58.3c0.9,0.1,1.3,0.4,1.3,0.9v2.7h-4.6v-2.8c0-0.3,0.1-0.5,0.3-0.6s0.5-0.2,1-0.2v-0.6h-4.3v0.6
		c0.9,0.1,1.3,0.4,1.3,0.9v6.6c0,0.2,0,0.4-0.2,0.5s-0.3,0.2-0.7,0.2l-0.5,0v0.6h4.3v-0.6c-0.5-0.1-0.8-0.1-1-0.2s-0.3-0.3-0.3-0.6
		v-3.1h4.6v3.2c0,0.4-0.3,0.7-0.8,0.7l-0.5,0v0.6h4.3v-0.6c-0.5,0-0.8-0.1-1-0.2s-0.3-0.3-0.3-0.6v-6.6c0-0.5,0.4-0.8,1.3-0.8v-0.6
		h-4.3L36.7,58.3L36.7,58.3z"/>
	<path class="st0" d="M49.3,57.5c-1.3,0-2.5,0.5-3.4,1.4c-0.9,0.9-1.4,2.1-1.4,3.5S45,65,45.9,66c0.9,0.9,2.1,1.4,3.4,1.4
		c1.3,0,2.5-0.5,3.4-1.4c0.9-0.9,1.4-2.1,1.4-3.5c0-1.4-0.5-2.6-1.4-3.5C51.9,58,50.7,57.5,49.3,57.5z M51.5,65.6
		c-0.5,0.7-1.2,1.1-2.2,1.1c-1.9,0-2.9-1.4-2.9-4.2c0-2.8,1-4.2,2.9-4.2c2,0,2.9,1.4,2.9,4.2C52.3,63.8,52,64.8,51.5,65.6z"/>
	<path class="st0" d="M57,60.4h0.6c0.2-0.6,0.4-1.1,0.7-1.4s0.4-0.4,0.5-0.5s0.6-0.1,1.4-0.1h0.4v7.4c0,0.4-0.2,0.7-0.6,0.7
		s-0.8,0.1-1,0.1v0.6h4.9v-0.6l-0.7-0.1c-0.6-0.1-0.9-0.3-0.9-0.8v-7.3h0.4c0.8,0,1.2,0,1.4,0.1s0.3,0.3,0.6,0.5s0.5,0.7,0.6,1.3
		h0.6v-2.6H57C57,57.8,57,60.4,57,60.4z"/>
	<path class="st0" d="M73.6,57.5c-1.3,0-2.5,0.5-3.4,1.4c-0.9,0.9-1.4,2.1-1.4,3.5s0.5,2.6,1.4,3.5c0.9,0.9,2.1,1.4,3.4,1.4
		c1.3,0,2.5-0.5,3.4-1.4c0.9-0.9,1.4-2.1,1.4-3.5c0-1.4-0.4-2.6-1.4-3.5C76.1,58,74.9,57.5,73.6,57.5z M75.7,65.6
		c-0.5,0.7-1.2,1.1-2.2,1.1c-1.9,0-2.9-1.4-2.9-4.2c0-2.8,1-4.2,2.9-4.2c1.9,0,2.9,1.4,2.9,4.2C76.5,63.8,76.2,64.8,75.7,65.6z"/>
	<path class="st0" d="M87,63.5c0.1,0,0.2,0,0.3,0c0.5,0,0.8,0.1,1,0.2s0.3,0.4,0.3,0.8v0.6c0,0.6,0,0.9-0.1,1
		c-0.5,0.4-1.1,0.6-1.8,0.6c-1.1,0-1.9-0.4-2.4-1.2s-0.9-1.8-0.9-3c0-1.3,0.3-2.3,0.8-3.1s1.3-1.1,2.3-1.1c0.8,0,1.5,0.2,1.9,0.7
		s0.8,1.2,1,2.1h0.6l-0.1-3.3h-0.6l-0.3,0.5c-0.8-0.4-1.6-0.6-2.5-0.6c-1.4,0-2.7,0.5-3.6,1.4s-1.4,2.1-1.4,3.6
		c0,1.4,0.5,2.5,1.4,3.4s2.1,1.4,3.5,1.4c1.2,0,2.5-0.3,3.8-0.8l0-1.4v-0.8c0-0.5,0.4-0.8,1.1-0.9c0.1,0,0.2,0,0.2,0v-0.5H87V63.5z"
		/>
	<path class="st0" d="M102.7,65.5l-1.2-1.4c-0.2-0.2-0.3-0.4-0.5-0.7c-0.2-0.3-0.4-0.5-0.7-0.8c1.6-0.4,2.4-1.3,2.4-2.5
		c0-0.7-0.3-1.2-0.9-1.6c-0.6-0.4-1.4-0.6-2.4-0.6h-4.8v0.6c0.6,0.1,1,0.2,1.1,0.3c0.1,0.1,0.2,0.3,0.2,0.6v6.6
		c0,0.5-0.3,0.7-0.8,0.8l-0.5,0.1v0.6h4.4v-0.6c-0.6,0-0.9-0.1-1.1-0.2s-0.3-0.3-0.3-0.6v-2.9h1c1.2,1.4,2.2,2.8,3.2,4.2h2.7v-0.6
		c-0.3,0-0.6-0.1-0.8-0.2S103.1,66,102.7,65.5z M98.5,62.2h-0.9v-3.8h1.2c1.3,0,2,0.6,2,1.8C100.8,61.5,100,62.2,98.5,62.2z"/>
	<path class="st0" d="M115,65.6l-3.3-8h-0.7l-1.6,3.9c-1,2.4-1.6,3.8-1.9,4.3s-0.7,0.7-1.4,0.7v0.6h3.7v-0.6
		c-0.9-0.1-1.4-0.2-1.4-0.6c0-0.2,0.2-0.9,0.7-2h3.3l0.7,1.8c0.1,0.2,0.1,0.3,0.1,0.4c0,0.2-0.4,0.3-1.3,0.4v0.6h4.3v-0.6
		C115.8,66.5,115.3,66.2,115,65.6z M109.5,63.3l1.4-3.6l1.4,3.6H109.5z"/>
	<path class="st0" d="M126,58.3c-0.6-0.4-1.4-0.6-2.4-0.6H119v0.6c0.1,0,0.3,0,0.4,0c0.3,0,0.6,0.1,0.7,0.2s0.2,0.3,0.2,0.6v6.6
		c0,0.5-0.3,0.7-0.8,0.8l-0.5,0.1v0.6h4.5v-0.6c-0.5,0-0.8-0.1-1.1-0.1s-0.4-0.3-0.4-0.7V63h1.2c1.1,0,2-0.3,2.6-0.8
		c0.7-0.5,1-1.3,1-2.2C126.9,59.3,126.6,58.8,126,58.3z M122.7,62.4h-0.6v-4h0.9c1.3,0,2,0.7,2,2C125,61.7,124.2,62.4,122.7,62.4z"
		/>
	<path class="st0" d="M136.5,58.3c0.9,0.1,1.3,0.4,1.3,0.9v2.7h-4.6v-2.8c0-0.3,0.1-0.5,0.3-0.6c0.2-0.1,0.5-0.2,1-0.2v-0.6h-4.3
		v0.6c0.9,0.1,1.3,0.4,1.3,0.9v6.6c0,0.2-0.1,0.4-0.2,0.5s-0.3,0.2-0.7,0.2l-0.5,0v0.6h4.3v-0.6c-0.5-0.1-0.8-0.1-1-0.2
		c-0.2-0.1-0.3-0.3-0.3-0.6v-3.1h4.6v3.2c0,0.4-0.3,0.7-0.8,0.7l-0.5,0v0.6h4.3v-0.6c-0.4,0-0.8-0.1-1-0.2s-0.3-0.3-0.3-0.6v-6.6
		c0-0.5,0.4-0.8,1.3-0.8v-0.6h-4.3L136.5,58.3L136.5,58.3z"/>
	<path class="st0" d="M149.6,58.3c0.9,0.1,1.3,0.2,1.3,0.5c0,0.2-0.8,1.5-2.3,3.7l-0.6-1.1c-1-1.7-1.5-2.6-1.5-2.8
		c0-0.2,0.4-0.3,1.2-0.3v-0.6h-4.3v0.6c0.4,0,0.8,0.2,1.2,0.5s0.8,1,1.3,2c0,0,0.1,0.1,0.1,0.2c0.9,1.5,1.4,2.4,1.4,2.7v2.1
		c0,0.3-0.1,0.5-0.3,0.6c-0.2,0.1-0.6,0.2-1.3,0.2v0.6h4.8v-0.6c-0.3,0-0.7-0.1-1.1-0.2S149,66,149,65.6v-1.7c0-0.3,0-0.6,0.1-0.8
		s0.3-0.5,0.6-1.1c0.4-0.6,0.8-1.2,1.2-1.9s0.8-1.1,0.9-1.2c0.1-0.2,0.3-0.3,0.5-0.4c0.2-0.1,0.4-0.2,0.7-0.2v-0.6h-3.5L149.6,58.3
		L149.6,58.3z"/>
</g>
</svg>
